STARTFONT 2.1
COMMENT METAFONT output 1995.04.12:1801
COMMENT fontid=MSAM V2.2
COMMENT codingscheme=TeX math symbols
COMMENT fontfacebyte
COMMENT jobname=msam10
COMMENT mag=0.45
COMMENT mode=cx
COMMENT pixels_per_inch=300
COMMENT blacker=0
COMMENT fillin=0.2
COMMENT o_correction=0.6
COMMENT Checksum 97b3eecd
COMMENT 
COMMENT This file is made by pktobdf using the above specified pk file.
COMMENT 
FONT -metafont-msam10-medium-r-normal--19-180-75-75-P-109-MetaFont-FONTSPECIFIC
SIZE 19 75 75
FONTBOUNDINGBOX 23 30 0 -10
STARTPROPERTIES 21
FONT_ASCENT 15
FONT_DESCENT 6
FOUNDRY "metafont"
FAMILY_NAME "msam10"
WEIGHT_NAME "medium"
SLANT "r"
SETWIDTH_NAME "normal"
ADD_STYLE_NAME ""
PIXEL_SIZE 19
POINT_SIZE 180
RESOLUTOIN_X 75
RESOLUTOIN_Y 75
SPACING "P"
AVERAGE_WIDTH 109
CHARSET_REGISTRY "MetaFont"
CHARSET_ENCODING "FONTSPECIFIC"
AVG_CAPITAL_WIDTH 19
AVG_LOWERCASE_WIDTH 23
COPYRIGHT "MetaFont (public domain)"
DEVICE_FONT_NAME "msam10"
FULLNAME "msam10"
ENDPROPERTIES
CHARS 128
STARTCHAR Gamma
ENCODING 0
SWIDTH 797 0
DWIDTH 15 0
BBX 12 12 1 0
BITMAP
fff0
8010
8010
8010
8010
8310
8010
8010
8010
8010
8010
fff0
ENDCHAR
STARTCHAR Delta
ENCODING 1
SWIDTH 797 0
DWIDTH 15 0
BBX 12 12 1 0
BITMAP
fff0
8210
8210
8210
8210
fff0
8210
8210
8210
8210
8210
fff0
ENDCHAR
STARTCHAR Theta
ENCODING 2
SWIDTH 797 0
DWIDTH 15 0
BBX 12 12 1 0
BITMAP
fff0
c030
a050
9090
8910
8610
8610
8910
9090
a050
c030
fff0
ENDCHAR
STARTCHAR Lamdba
ENCODING 3
SWIDTH 797 0
DWIDTH 15 0
BBX 12 12 1 0
BITMAP
fff0
8010
8010
8010
8010
8010
8010
8010
8010
8010
8010
fff0
ENDCHAR
STARTCHAR Xi
ENCODING 4
SWIDTH 797 0
DWIDTH 15 0
BBX 12 12 1 0
BITMAP
fff0
fff0
fff0
fff0
fff0
fff0
fff0
fff0
fff0
fff0
fff0
fff0
ENDCHAR
STARTCHAR Pi
ENCODING 5
SWIDTH 265 0
DWIDTH 5 0
BBX 2 2 1 0
BITMAP
c0
c0
ENDCHAR
STARTCHAR Sigma
ENCODING 6
SWIDTH 637 0
DWIDTH 12 0
BBX 9 16 1 -2
BITMAP
0800
0800
1400
1400
2200
2200
4100
8080
8080
4100
4100
2200
2200
1400
1400
0800
ENDCHAR
STARTCHAR Upsilon
ENCODING 7
SWIDTH 637 0
DWIDTH 12 0
BBX 9 16 1 -2
BITMAP
0800
0800
1c00
1c00
3e00
3e00
7f00
ff80
ff80
7f00
7f00
3e00
3e00
1c00
1c00
0800
ENDCHAR
STARTCHAR Phi
ENCODING 8
SWIDTH 797 0
DWIDTH 15 0
BBX 12 14 1 -2
BITMAP
3000
1c00
28c0
4820
5020
8010
8010
8010
8010
8010
4020
4020
2040
1f80
ENDCHAR
STARTCHAR Psi
ENCODING 9
SWIDTH 797 0
DWIDTH 15 0
BBX 12 14 1 -2
BITMAP
00c0
0380
3140
4120
40a0
8010
8010
8010
8010
8010
4020
4020
2040
1f80
ENDCHAR
STARTCHAR Omega
ENCODING 10
SWIDTH 1009 0
DWIDTH 19 0
BBX 16 11 1 -1
BITMAP
0008
0004
0006
ffff
0000
0000
0000
ffff
6000
2000
1000
ENDCHAR
STARTCHAR arrowup
ENCODING 11
SWIDTH 1009 0
DWIDTH 19 0
BBX 16 11 1 -1
BITMAP
1000
2000
6000
ffff
0000
0000
0000
ffff
0006
0004
0008
ENDCHAR
STARTCHAR arrowdown
ENCODING 12
SWIDTH 797 0
DWIDTH 15 0
BBX 12 12 1 0
BITMAP
fff0
8010
8010
8010
8010
fff0
8010
8010
8010
8010
8010
fff0
ENDCHAR
STARTCHAR quotesingle
ENCODING 13
SWIDTH 690 0
DWIDTH 13 0
BBX 10 13 1 0
BITMAP
8800
8800
8800
8800
8800
8800
8fc0
8800
8800
8800
8800
8800
8800
ENDCHAR
STARTCHAR exclamdown
ENCODING 14
SWIDTH 903 0
DWIDTH 17 0
BBX 14 13 1 0
BITMAP
8880
8880
8880
8880
8880
8880
88fc
8880
8880
8880
8880
8880
8880
ENDCHAR
STARTCHAR questiondown
ENCODING 15
SWIDTH 584 0
DWIDTH 11 0
BBX 8 13 1 0
BITMAP
80
80
80
ff
80
80
80
80
ff
80
80
80
80
ENDCHAR
STARTCHAR dotlessi
ENCODING 16
SWIDTH 1009 0
DWIDTH 19 0
BBX 16 7 1 1
BITMAP
0048
0044
0022
ffff
0022
0044
0048
ENDCHAR
STARTCHAR dotlessj
ENCODING 17
SWIDTH 1009 0
DWIDTH 19 0
BBX 16 7 1 1
BITMAP
1200
2200
4400
ffff
4400
2200
1200
ENDCHAR
STARTCHAR grave
ENCODING 18
SWIDTH 1009 0
DWIDTH 19 0
BBX 16 13 1 -2
BITMAP
1000
2000
4000
ffff
6000
2000
1000
2000
6000
ffff
4000
2000
1000
ENDCHAR
STARTCHAR acute
ENCODING 19
SWIDTH 1009 0
DWIDTH 19 0
BBX 16 13 1 -2
BITMAP
0008
0004
0002
ffff
0006
0004
0008
0004
0006
ffff
0002
0004
0008
ENDCHAR
STARTCHAR caron
ENCODING 20
SWIDTH 850 0
DWIDTH 16 0
BBX 13 17 1 -4
BITMAP
1040
38e0
5dd0
9048
1040
1040
1040
1040
1040
1040
1040
1040
1040
1040
1040
1040
1040
ENDCHAR
STARTCHAR breve
ENCODING 21
SWIDTH 850 0
DWIDTH 16 0
BBX 13 17 1 -4
BITMAP
1040
1040
1040
1040
1040
1040
1040
1040
1040
1040
1040
1040
1040
9048
5dd0
38e0
1040
ENDCHAR
STARTCHAR macron
ENCODING 22
SWIDTH 425 0
DWIDTH 8 0
BBX 4 17 3 -4
BITMAP
80
c0
e0
90
80
80
80
80
80
80
80
80
80
80
80
80
80
ENDCHAR
STARTCHAR ring
ENCODING 23
SWIDTH 425 0
DWIDTH 8 0
BBX 4 17 3 -4
BITMAP
80
80
80
80
80
80
80
80
80
80
80
80
80
90
e0
c0
80
ENDCHAR
STARTCHAR cedilla
ENCODING 24
SWIDTH 425 0
DWIDTH 8 0
BBX 4 17 0 -4
BITMAP
10
30
70
90
10
10
10
10
10
10
10
10
10
10
10
10
10
ENDCHAR
STARTCHAR germandbls
ENCODING 25
SWIDTH 425 0
DWIDTH 8 0
BBX 4 17 0 -4
BITMAP
10
10
10
10
10
10
10
10
10
10
10
10
10
90
70
30
10
ENDCHAR
STARTCHAR ae
ENCODING 26
SWIDTH 1115 0
DWIDTH 21 0
BBX 18 7 1 1
BITMAP
800100
800100
400080
7fffc0
400080
800100
800100
ENDCHAR
STARTCHAR oe
ENCODING 27
SWIDTH 1115 0
DWIDTH 21 0
BBX 18 7 1 1
BITMAP
200040
200040
400080
ffff80
400080
200040
200040
ENDCHAR
STARTCHAR oslash
ENCODING 28
SWIDTH 1009 0
DWIDTH 19 0
BBX 16 12 1 0
BITMAP
2000
2000
7fff
4000
2000
2000
0004
0004
0002
ffff
0006
0004
ENDCHAR
STARTCHAR AE
ENCODING 29
SWIDTH 1009 0
DWIDTH 19 0
BBX 16 12 1 0
BITMAP
0004
0004
fffe
0002
0004
0004
2000
2000
4000
ffff
6000
2000
ENDCHAR
STARTCHAR OE
ENCODING 30
SWIDTH 478 0
DWIDTH 9 0
BBX 6 14 1 0
BITMAP
10
20
60
fc
44
24
14
04
04
04
04
04
04
04
ENDCHAR
STARTCHAR Oslash
ENCODING 31
SWIDTH 478 0
DWIDTH 9 0
BBX 6 14 1 0
BITMAP
20
10
18
fc
88
90
a0
80
80
80
80
80
80
80
ENDCHAR
STARTCHAR tilde
ENCODING 32
SWIDTH 1009 0
DWIDTH 19 0
BBX 16 7 1 1
BITMAP
0008
0004
60c2
913f
0a02
0404
0008
ENDCHAR
STARTCHAR exclam
ENCODING 33
SWIDTH 1381 0
DWIDTH 26 0
BBX 23 7 1 1
BITMAP
100010
201008
4628c4
f9293e
40c604
200008
100010
ENDCHAR
STARTCHAR quotedblright
ENCODING 34
SWIDTH 1009 0
DWIDTH 19 0
BBX 16 10 1 0
BITMAP
001f
0011
1011
2021
4021
fffe
4010
2010
1010
0010
ENDCHAR
STARTCHAR numbersign
ENCODING 35
SWIDTH 1009 0
DWIDTH 19 0
BBX 16 10 1 0
BITMAP
f800
8800
8808
8404
8402
7fff
0402
0404
0408
0400
ENDCHAR
STARTCHAR dollar
ENCODING 36
SWIDTH 797 0
DWIDTH 15 0
BBX 12 13 1 2
BITMAP
0600
0900
0900
0900
0600
0000
0000
0000
fff0
0000
0000
0000
fff0
ENDCHAR
STARTCHAR percent
ENCODING 37
SWIDTH 797 0
DWIDTH 15 0
BBX 12 20 1 -6
BITMAP
4000
4000
4000
2000
1000
0e00
01e0
0e00
1000
2000
4000
4000
0000
0000
0000
3810
4410
8210
8220
81c0
ENDCHAR
STARTCHAR ampersand
ENCODING 38
SWIDTH 797 0
DWIDTH 15 0
BBX 12 20 1 -6
BITMAP
4000
3000
0c00
0200
0180
0060
0060
0180
0200
0c00
3000
4000
0000
0000
0000
3810
4410
8210
8220
81c0
ENDCHAR
STARTCHAR quoteright
ENCODING 39
SWIDTH 797 0
DWIDTH 15 0
BBX 12 21 1 -7
BITMAP
4000
3000
0c00
0300
00c0
0060
0180
0600
1800
6000
0000
0000
3810
4410
8220
81c0
0000
3810
4410
8220
81c0
ENDCHAR
STARTCHAR parenleft
ENCODING 40
SWIDTH 1115 0
DWIDTH 21 0
BBX 18 7 1 1
BITMAP
000300
000480
000840
fff840
000840
000480
000300
ENDCHAR
STARTCHAR parenright
ENCODING 41
SWIDTH 637 0
DWIDTH 12 0
BBX 9 8 1 -1
BITMAP
0800
0800
0000
0000
0000
0000
c180
c180
ENDCHAR
STARTCHAR asterisk
ENCODING 42
SWIDTH 637 0
DWIDTH 12 0
BBX 9 8 1 -1
BITMAP
c180
c180
0000
0000
0000
0000
0800
0800
ENDCHAR
STARTCHAR plus
ENCODING 43
SWIDTH 797 0
DWIDTH 15 0
BBX 12 15 1 -3
BITMAP
0600
0600
0600
0000
0000
fff0
0000
0000
0000
fff0
0000
0000
0600
0600
0600
ENDCHAR
STARTCHAR comma
ENCODING 44
SWIDTH 850 0
DWIDTH 16 0
BBX 13 14 1 2
BITMAP
0200
0500
0500
0880
1040
1040
1fc0
0000
0000
fff8
0000
0000
0000
fff8
ENDCHAR
STARTCHAR hyphen
ENCODING 45
SWIDTH 797 0
DWIDTH 15 0
BBX 12 20 1 -6
BITMAP
0020
0020
0020
0040
0080
0700
7800
0700
0080
0040
0020
0020
0000
0000
0000
3810
4410
8210
8220
81c0
ENDCHAR
STARTCHAR period
ENCODING 46
SWIDTH 797 0
DWIDTH 15 0
BBX 12 20 1 -6
BITMAP
0020
00c0
0300
0400
1800
6000
6000
1800
0400
0300
00c0
0020
0000
0000
0000
3810
4410
8210
8220
81c0
ENDCHAR
STARTCHAR slash
ENCODING 47
SWIDTH 797 0
DWIDTH 15 0
BBX 12 21 1 -7
BITMAP
0020
00c0
0300
0c00
3000
6000
1800
0600
0180
0060
0000
0000
3810
4410
8220
81c0
0000
3810
4410
8220
81c0
ENDCHAR
STARTCHAR 0
ENCODING 48
SWIDTH 797 0
DWIDTH 15 0
BBX 10 16 2 -4
BITMAP
0040
0180
0600
0800
3040
c180
0600
0800
3000
4000
c000
3000
0800
0600
0180
0040
ENDCHAR
STARTCHAR 1
ENCODING 49
SWIDTH 797 0
DWIDTH 15 0
BBX 10 16 2 -4
BITMAP
8000
6000
1800
0400
8300
60c0
1800
0400
0300
0080
00c0
0300
0400
1800
6000
8000
ENDCHAR
STARTCHAR 2
ENCODING 50
SWIDTH 797 0
DWIDTH 15 0
BBX 10 15 2 0
BITMAP
0100
0100
0200
0240
0c40
f080
0080
0300
7c00
7c00
0300
0080
0080
0040
0040
ENDCHAR
STARTCHAR 3
ENCODING 51
SWIDTH 797 0
DWIDTH 15 0
BBX 10 15 2 0
BITMAP
2000
2000
1000
9000
8c00
43c0
4000
3000
0fc0
0f80
3000
4000
4000
8000
8000
ENDCHAR
STARTCHAR 4
ENCODING 52
SWIDTH 797 0
DWIDTH 15 0
BBX 9 15 3 -3
BITMAP
0080
0080
0100
0100
0600
f800
f800
0600
0100
e100
1880
0480
0400
0200
0200
ENDCHAR
STARTCHAR 5
ENCODING 53
SWIDTH 797 0
DWIDTH 15 0
BBX 10 19 2 -5
BITMAP
0040
0180
0600
0800
3000
c000
c000
3000
0800
0600
0180
0040
0000
0000
ffc0
0000
0000
0000
ffc0
ENDCHAR
STARTCHAR 6
ENCODING 54
SWIDTH 797 0
DWIDTH 15 0
BBX 10 16 2 -4
BITMAP
0040
0180
0600
0800
3000
c000
c000
3000
0800
0600
c180
3040
0800
0600
0180
0040
ENDCHAR
STARTCHAR 7
ENCODING 55
SWIDTH 797 0
DWIDTH 15 0
BBX 12 18 1 -5
BITMAP
0010
00e0
0700
1800
e000
e000
1800
0700
00e0
e010
1800
0700
00e0
0010
00e0
0700
1800
e000
ENDCHAR
STARTCHAR 8
ENCODING 56
SWIDTH 265 0
DWIDTH 5 0
BBX 3 9 0 1
BITMAP
c0
c0
c0
40
40
60
60
20
20
ENDCHAR
STARTCHAR 9
ENCODING 57
SWIDTH 318 0
DWIDTH 6 0
BBX 5 1 2 4
BITMAP
f8
ENDCHAR
STARTCHAR colon
ENCODING 58
SWIDTH 797 0
DWIDTH 15 0
BBX 14 15 0 -3
BITMAP
0008
000c
0000
0000
0000
7ff8
0000
0000
0000
7ff8
0000
0000
0000
c000
4000
ENDCHAR
STARTCHAR semicolon
ENCODING 59
SWIDTH 797 0
DWIDTH 15 0
BBX 14 15 0 -3
BITMAP
4000
c000
0000
0000
0000
7ff8
0000
0000
0000
7ff8
0000
0000
0000
000c
0008
ENDCHAR
STARTCHAR less
ENCODING 60
SWIDTH 797 0
DWIDTH 15 0
BBX 10 15 2 -3
BITMAP
8000
8000
4000
4000
3000
0fc0
0f80
3000
4000
43c0
8c00
9000
1000
2000
2000
ENDCHAR
STARTCHAR equal
ENCODING 61
SWIDTH 797 0
DWIDTH 15 0
BBX 10 19 2 -5
BITMAP
8000
6000
1800
0400
0300
00c0
00c0
0300
0400
1800
6000
8000
0000
0000
ffc0
0000
0000
0000
ffc0
ENDCHAR
STARTCHAR greater
ENCODING 62
SWIDTH 797 0
DWIDTH 15 0
BBX 10 16 2 -4
BITMAP
8000
6000
1800
0400
0300
00c0
00c0
0300
0400
1800
60c0
8300
0400
1800
6000
8000
ENDCHAR
STARTCHAR question
ENCODING 63
SWIDTH 797 0
DWIDTH 15 0
BBX 10 19 2 -6
BITMAP
8000
6000
1800
0600
0180
00c0
0300
0c00
3000
c0c0
0300
0c00
3000
c000
6000
1800
0600
0180
0040
ENDCHAR
STARTCHAR at
ENCODING 64
SWIDTH 797 0
DWIDTH 15 0
BBX 11 12 2 -2
BITMAP
ffe0
8000
8000
8000
8000
8000
8000
8000
8000
8000
8000
ffe0
ENDCHAR
STARTCHAR A
ENCODING 65
SWIDTH 797 0
DWIDTH 15 0
BBX 12 12 1 -2
BITMAP
fff0
0010
0010
0010
0010
0010
0010
0010
0010
0010
0010
7ff0
ENDCHAR
STARTCHAR B
ENCODING 66
SWIDTH 797 0
DWIDTH 15 0
BBX 10 12 2 -2
BITMAP
8000
e000
9800
8600
8100
80c0
80c0
8100
8600
9800
e000
8000
ENDCHAR
STARTCHAR C
ENCODING 67
SWIDTH 797 0
DWIDTH 15 0
BBX 9 12 3 -2
BITMAP
0080
0380
0480
1880
2080
c080
c080
2080
1880
0480
0380
0080
ENDCHAR
STARTCHAR D
ENCODING 68
SWIDTH 797 0
DWIDTH 15 0
BBX 10 16 2 -4
BITMAP
8000
e000
9800
8600
8100
80c0
80c0
8100
8600
9800
e000
8000
0000
0000
0000
ffc0
ENDCHAR
STARTCHAR E
ENCODING 69
SWIDTH 797 0
DWIDTH 15 0
BBX 9 16 3 -4
BITMAP
0080
0380
0480
1880
2080
c080
c080
2080
1880
0480
0380
0080
0000
0000
0000
ff80
ENDCHAR
STARTCHAR F
ENCODING 70
SWIDTH 956 0
DWIDTH 18 0
BBX 12 12 3 -1
BITMAP
0600
0600
0600
0f00
fff0
7fe0
3fc0
1f80
1f80
39c0
30c0
2040
ENDCHAR
STARTCHAR G
ENCODING 71
SWIDTH 478 0
DWIDTH 9 0
BBX 6 19 1 -5
BITMAP
48
30
30
30
48
48
84
84
84
84
84
84
84
48
48
30
30
30
48
ENDCHAR
STARTCHAR H
ENCODING 72
SWIDTH 690 0
DWIDTH 13 0
BBX 8 11 2 0
BITMAP
ff
ff
ff
7e
7e
7e
3c
3c
18
18
18
ENDCHAR
STARTCHAR I
ENCODING 73
SWIDTH 797 0
DWIDTH 15 0
BBX 10 12 2 -2
BITMAP
8000
e000
f800
fe00
ff00
ffc0
ffc0
ff00
fe00
f800
e000
8000
ENDCHAR
STARTCHAR J
ENCODING 74
SWIDTH 797 0
DWIDTH 15 0
BBX 9 12 3 -2
BITMAP
0080
0380
0780
1f80
3f80
ff80
ff80
3f80
1f80
0780
0380
0080
ENDCHAR
STARTCHAR K
ENCODING 75
SWIDTH 850 0
DWIDTH 16 0
BBX 6 7 1 1
BITMAP
60
30
18
fc
18
30
60
ENDCHAR
STARTCHAR L
ENCODING 76
SWIDTH 903 0
DWIDTH 17 0
BBX 6 7 1 1
BITMAP
18
18
30
fc
30
18
18
ENDCHAR
STARTCHAR M
ENCODING 77
SWIDTH 690 0
DWIDTH 13 0
BBX 8 10 2 0
BITMAP
18
18
18
24
24
42
42
42
81
ff
ENDCHAR
STARTCHAR N
ENCODING 78
SWIDTH 690 0
DWIDTH 13 0
BBX 8 10 2 0
BITMAP
18
18
18
3c
3c
7e
7e
7e
ff
ff
ENDCHAR
STARTCHAR O
ENCODING 79
SWIDTH 690 0
DWIDTH 13 0
BBX 8 11 2 0
BITMAP
ff
81
81
42
42
42
24
24
18
18
18
ENDCHAR
STARTCHAR P
ENCODING 80
SWIDTH 797 0
DWIDTH 15 0
BBX 12 5 1 2
BITMAP
fff0
0000
0000
0000
fff0
ENDCHAR
STARTCHAR Q
ENCODING 81
SWIDTH 797 0
DWIDTH 15 0
BBX 10 25 2 -8
BITMAP
00c0
0300
0c00
3000
c000
3000
0c00
0300
00c0
0000
0000
0000
ff80
0000
0000
0000
c000
3000
0c00
0300
0080
0300
0c00
3000
c000
ENDCHAR
STARTCHAR R
ENCODING 82
SWIDTH 797 0
DWIDTH 15 0
BBX 10 25 2 -8
BITMAP
c000
3000
0c00
0300
00c0
0300
0c00
3000
c000
0000
0000
0000
ff80
0000
0000
0000
0080
0300
0c00
3000
c000
3000
0c00
0300
0080
ENDCHAR
STARTCHAR S
ENCODING 83
SWIDTH 797 0
DWIDTH 15 0
BBX 10 30 2 -10
BITMAP
0040
0180
0600
1800
e000
6000
1800
0600
01c0
0000
0000
0000
ffc0
0000
0000
0000
0000
ffc0
0000
0000
0000
e000
1800
0600
0180
01c0
0600
1800
6000
8000
ENDCHAR
STARTCHAR T
ENCODING 84
SWIDTH 797 0
DWIDTH 15 0
BBX 10 30 2 -10
BITMAP
8000
6000
1800
0600
01c0
0180
0600
1800
e000
0000
0000
0000
ffc0
0000
0000
0000
0000
ffc0
0000
0000
0000
01c0
0600
1800
6000
e000
1800
0600
0180
0040
ENDCHAR
STARTCHAR U
ENCODING 85
SWIDTH 743 0
DWIDTH 14 0
BBX 13 13 0 0
BITMAP
fcf8
3820
1840
0c40
7ff0
0680
0780
0300
7ff0
0300
0300
0300
0fc0
ENDCHAR
STARTCHAR V
ENCODING 86
SWIDTH 1009 0
DWIDTH 19 0
BBX 15 15 1 -3
BITMAP
0040
0040
0060
fff0
0010
0008
000c
fffe
000c
0008
0010
fff0
0060
0040
0040
ENDCHAR
STARTCHAR W
ENCODING 87
SWIDTH 1009 0
DWIDTH 19 0
BBX 15 15 2 -3
BITMAP
0400
0400
0c00
1ffe
1000
2000
6000
fffe
6000
2000
1000
1ffe
0c00
0400
0400
ENDCHAR
STARTCHAR X
ENCODING 88
SWIDTH 850 0
DWIDTH 16 0
BBX 10 13 2 0
BITMAP
0040
0080
0100
0300
0200
0400
0c00
0c00
4800
f800
7000
7000
3000
ENDCHAR
STARTCHAR Y
ENCODING 89
SWIDTH 584 0
DWIDTH 11 0
BBX 8 13 1 0
BITMAP
81
81
42
42
24
24
18
18
00
00
00
00
ff
ENDCHAR
STARTCHAR Z
ENCODING 90
SWIDTH 584 0
DWIDTH 11 0
BBX 8 13 1 0
BITMAP
ff
00
00
00
08
18
18
24
24
42
42
81
81
ENDCHAR
STARTCHAR bracketleft
ENCODING 91
SWIDTH 584 0
DWIDTH 11 0
BBX 8 17 1 -2
BITMAP
ff
00
00
00
ff
00
00
00
00
18
18
24
24
42
42
81
81
ENDCHAR
STARTCHAR leftdblquote
ENCODING 92
SWIDTH 690 0
DWIDTH 13 0
BBX 10 13 1 0
BITMAP
0040
0080
0080
0100
0200
0400
0400
0800
1000
2000
2000
4000
ffc0
ENDCHAR
STARTCHAR bracketright
ENCODING 93
SWIDTH 690 0
DWIDTH 13 0
BBX 10 13 1 0
BITMAP
0040
0080
0100
0200
0200
0400
0800
0800
1400
2400
4200
4200
ffc0
ENDCHAR
STARTCHAR circumflex
ENCODING 94
SWIDTH 690 0
DWIDTH 13 0
BBX 10 11 1 -1
BITMAP
00c0
0180
0680
1840
6040
8040
6040
1840
0680
0180
00c0
ENDCHAR
STARTCHAR dotaccent
ENCODING 95
SWIDTH 797 0
DWIDTH 15 0
BBX 11 7 1 1
BITMAP
3c60
4280
8180
8100
8180
4280
3c60
ENDCHAR
STARTCHAR leftquote
ENCODING 96
SWIDTH 797 0
DWIDTH 15 0
BBX 12 4 1 3
BITMAP
8010
4020
2040
1f80
ENDCHAR
STARTCHAR a
ENCODING 97
SWIDTH 797 0
DWIDTH 15 0
BBX 12 4 1 3
BITMAP
0f00
30c0
4020
8010
ENDCHAR
STARTCHAR b
ENCODING 98
SWIDTH 797 0
DWIDTH 15 0
BBX 10 13 2 -2
BITMAP
1fc0
2000
4000
4000
8fc0
9000
9000
9000
8fc0
4000
4000
2000
1fc0
ENDCHAR
STARTCHAR c
ENCODING 99
SWIDTH 797 0
DWIDTH 15 0
BBX 10 13 2 -2
BITMAP
fe00
0100
0080
0080
fc40
0240
0240
0240
fc40
0080
0080
0100
fe00
ENDCHAR
STARTCHAR d
ENCODING 100
SWIDTH 637 0
DWIDTH 12 0
BBX 9 11 1 0
BITMAP
9480
9480
9480
9480
9480
9480
9480
8880
8080
4100
3e00
ENDCHAR
STARTCHAR e
ENCODING 101
SWIDTH 637 0
DWIDTH 12 0
BBX 9 11 1 0
BITMAP
3e00
4100
8080
8880
9480
9480
9480
9480
9480
9480
9480
ENDCHAR
STARTCHAR f
ENCODING 102
SWIDTH 743 0
DWIDTH 14 0
BBX 9 10 2 0
BITMAP
0800
0800
0800
0800
0800
0800
1400
1400
2200
c180
ENDCHAR
STARTCHAR g
ENCODING 103
SWIDTH 743 0
DWIDTH 14 0
BBX 9 10 2 0
BITMAP
c180
2200
1400
1400
0800
0800
0800
0800
0800
0800
ENDCHAR
STARTCHAR h
ENCODING 104
SWIDTH 797 0
DWIDTH 15 0
BBX 12 13 1 0
BITMAP
8000
4000
2000
1000
0800
0400
0400
0600
0900
1080
2040
4020
8010
ENDCHAR
STARTCHAR i
ENCODING 105
SWIDTH 797 0
DWIDTH 15 0
BBX 12 13 1 0
BITMAP
0010
0020
0040
0080
0100
0200
0200
0600
0900
1080
2040
4020
8010
ENDCHAR
STARTCHAR j
ENCODING 106
SWIDTH 797 0
DWIDTH 15 0
BBX 10 20 2 -6
BITMAP
1fc0
2000
4000
4000
8000
8000
8000
8000
4000
4000
2000
1fc0
0000
0000
0000
ffc0
0000
0000
0000
ffc0
ENDCHAR
STARTCHAR k
ENCODING 107
SWIDTH 797 0
DWIDTH 15 0
BBX 10 20 2 -6
BITMAP
fe00
0100
0080
0080
0040
0040
0040
0040
0080
0080
0100
fe00
0000
0000
0000
ffc0
0000
0000
0000
ffc0
ENDCHAR
STARTCHAR l
ENCODING 108
SWIDTH 797 0
DWIDTH 15 0
BBX 12 7 1 2
BITMAP
0f00
0900
f0f0
0000
0000
0000
fff0
ENDCHAR
STARTCHAR m
ENCODING 109
SWIDTH 797 0
DWIDTH 15 0
BBX 12 9 1 0
BITMAP
0f00
0900
f0f0
0000
0000
0000
f0f0
0900
0f00
ENDCHAR
STARTCHAR n
ENCODING 110
SWIDTH 1328 0
DWIDTH 25 0
BBX 22 13 1 -2
BITMAP
00630c
018430
021840
0c2180
10c200
610c00
861000
610c00
10c200
0c2180
021840
018430
00630c
ENDCHAR
STARTCHAR o
ENCODING 111
SWIDTH 1328 0
DWIDTH 25 0
BBX 22 13 1 -2
BITMAP
c21800
318400
086300
061080
018c60
004218
002184
004218
018c60
061080
086300
318400
c21800
ENDCHAR
STARTCHAR p
ENCODING 112
SWIDTH 478 0
DWIDTH 9 0
BBX 6 6 1 7
BITMAP
fc
80
80
80
80
80
ENDCHAR
STARTCHAR q
ENCODING 113
SWIDTH 478 0
DWIDTH 9 0
BBX 6 6 1 7
BITMAP
fc
04
04
04
04
04
ENDCHAR
STARTCHAR r
ENCODING 114
SWIDTH 956 0
DWIDTH 18 0
BBX 17 17 0 -3
BITMAP
01c000
0e3800
100400
200200
4fc100
441100
841080
841080
87c080
846080
842080
442100
442100
2e1e00
100400
080800
07f000
ENDCHAR
STARTCHAR s
ENCODING 115
SWIDTH 903 0
DWIDTH 17 0
BBX 16 17 0 -3
BITMAP
0180
0e70
1008
2004
43e2
8421
8401
8401
8381
8041
8021
8021
4422
47c2
2004
1818
07e0
ENDCHAR
STARTCHAR t
ENCODING 116
SWIDTH 637 0
DWIDTH 12 0
BBX 9 14 1 0
BITMAP
0800
0800
0800
0800
3e00
4900
8880
8880
8880
8880
8880
8880
8880
8880
ENDCHAR
STARTCHAR u
ENCODING 117
SWIDTH 797 0
DWIDTH 15 0
BBX 12 17 1 -2
BITMAP
0200
0700
0700
0000
0200
0200
0200
0200
0200
0200
fff0
0200
0200
0200
0200
0200
0200
ENDCHAR
STARTCHAR v
ENCODING 118
SWIDTH 797 0
DWIDTH 15 0
BBX 12 5 1 2
BITMAP
81c0
8220
8410
4410
3810
ENDCHAR
STARTCHAR w
ENCODING 119
SWIDTH 797 0
DWIDTH 15 0
BBX 12 9 1 0
BITMAP
81c0
8220
8410
4410
3810
0000
0000
0000
fff0
ENDCHAR
STARTCHAR x
ENCODING 120
SWIDTH 478 0
DWIDTH 9 0
BBX 6 6 1 0
BITMAP
80
80
80
80
80
fc
ENDCHAR
STARTCHAR y
ENCODING 121
SWIDTH 478 0
DWIDTH 9 0
BBX 6 6 1 0
BITMAP
04
04
04
04
04
fc
ENDCHAR
STARTCHAR z
ENCODING 122
SWIDTH 850 0
DWIDTH 16 0
BBX 13 13 1 0
BITMAP
1fc0
0f80
0700
8708
c218
f278
fff8
f278
c218
8708
0700
0f80
1fc0
ENDCHAR
STARTCHAR endash
ENCODING 123
SWIDTH 478 0
DWIDTH 9 0
BBX 6 15 1 0
BITMAP
30
78
cc
cc
cc
c0
c0
c0
c0
c0
cc
cc
cc
78
30
ENDCHAR
STARTCHAR emdash
ENCODING 124
SWIDTH 531 0
DWIDTH 10 0
BBX 5 12 2 -4
BITMAP
f8
f8
30
30
30
30
30
30
30
30
30
20
ENDCHAR
STARTCHAR quotedbl
ENCODING 125
SWIDTH 797 0
DWIDTH 15 0
BBX 12 13 1 -2
BITMAP
1f80
2040
4020
4020
8610
8910
8910
8610
8010
4020
4020
2040
1f80
ENDCHAR
STARTCHAR hungarumlaut
ENCODING 126
SWIDTH 797 0
DWIDTH 15 0
BBX 12 13 1 -2
BITMAP
1f80
2040
4220
4220
9290
8b10
8610
8b10
9290
4220
4020
2040
1f80
ENDCHAR
STARTCHAR dieresis
ENCODING 127
SWIDTH 797 0
DWIDTH 15 0
BBX 12 13 1 -2
BITMAP
1f80
2040
4020
4020
8010
8010
9f90
8010
8010
4020
4020
2040
1f80
ENDCHAR
ENDFONT
